<svg width="25" height="24" viewBox="0 0 25 24" fill="none" xmlns="http://www.w3.org/2000/svg">
<path fill-rule="evenodd" clip-rule="evenodd" d="M20.7205 17.0273L14.2271 5.06734C13.8769 4.42392 13.203 4.02344 12.4705 4.02344C11.7379 4.02344 11.064 4.42392 10.7138 5.06734L4.21379 17.0273C3.86758 17.6488 3.8775 18.4073 4.23985 19.0195C4.6022 19.6316 5.26244 20.0052 5.97379 20.0007H18.9605C19.6658 20.0013 20.3193 19.6304 20.6803 19.0245C21.0414 18.4186 21.0567 17.6674 20.7205 17.0473V17.0273ZM11.4737 8.4941C11.4737 7.94182 11.9215 7.4941 12.4737 7.4941C13.026 7.4941 13.4737 7.94182 13.4737 8.4941V13.0874C13.4737 13.6397 13.026 14.0874 12.4737 14.0874C11.9215 14.0874 11.4737 13.6397 11.4737 13.0874V8.4941ZM11.3538 16.354C11.3538 16.9873 11.8672 17.5006 12.5004 17.5006C13.1337 17.5006 13.6471 16.9873 13.6471 16.354C13.6471 15.7207 13.1337 15.2073 12.5004 15.2073C11.8672 15.2073 11.3538 15.7207 11.3538 16.354Z" fill="white"/>
</svg>
